<svg xmlns="http://www.w3.org/2000/svg" width="1200" height="700" viewBox="0 0 1200 700">
  <defs>
    <linearGradient id="bg" x1="0" y1="0" x2="0" y2="1">
      <stop offset="0%" stop-color="#090b12" />
      <stop offset="100%" stop-color="#121826" />
    </linearGradient>
    <linearGradient id="panel" x1="0" y1="0" x2="1" y2="1">
      <stop offset="0%" stop-color="#141c2a" />
      <stop offset="100%" stop-color="#0e1422" />
    </linearGradient>
  </defs>
  <rect width="1200" height="700" fill="url(#bg)" />
  <rect x="60" y="70" width="1080" height="560" rx="28" fill="url(#panel)" stroke="#2d5bff" stroke-width="1.5" />

  <g stroke="#2d5bff" stroke-width="1" opacity="0.4">
    <line x1="160" y1="160" x2="520" y2="160" />
    <line x1="160" y1="240" x2="520" y2="240" />
    <line x1="160" y1="320" x2="520" y2="320" />
    <line x1="680" y1="200" x2="1020" y2="200" />
    <line x1="680" y1="280" x2="1020" y2="280" />
  </g>

  <rect x="140" y="140" width="420" height="240" rx="18" fill="#0f131f" stroke="#2d5bff" stroke-width="1.2" />
  <rect x="620" y="140" width="440" height="180" rx="18" fill="#0f131f" stroke="#ff6a4d" stroke-width="1.2" />
  <rect x="620" y="360" width="440" height="210" rx="18" fill="#0f131f" stroke="#2d5bff" stroke-width="1.2" />

  <circle cx="230" cy="210" r="36" fill="#2d5bff" opacity="0.2" />
  <circle cx="320" cy="210" r="36" fill="#ff6a4d" opacity="0.2" />
  <circle cx="410" cy="210" r="36" fill="#ffffff" opacity="0.08" />

  <text x="140" y="100" fill="#f4efe7" font-size="34" font-family="Space Grotesk, Arial, sans-serif" font-weight="700" letter-spacing="2">COMMAND CENTER</text>
  <text x="140" y="128" fill="#b6b1a9" font-size="18" font-family="Space Grotesk, Arial, sans-serif">Systems view · dashboards · modular control</text>

  <text x="170" y="310" fill="#f4efe7" font-size="22" font-family="Space Grotesk, Arial, sans-serif" font-weight="600">Signal dashboard</text>
  <text x="660" y="260" fill="#f4efe7" font-size="22" font-family="Space Grotesk, Arial, sans-serif" font-weight="600">Performance loop</text>
  <text x="660" y="460" fill="#f4efe7" font-size="22" font-family="Space Grotesk, Arial, sans-serif" font-weight="600">Content engine map</text>
</svg>
